#!OML:ASF H:\Martial Arts Walks\Project 1\Capture day 1\Session 1\male.ASF
:FULLY-SPECIFIED
:DEGREES
5040
root -2.60537 16.4938 -38.2888 -713.981 6.48658 -362.543
lowerback 5.36371 4.91832 -1.05646
upperback -3.67614 6.5365 0.452099
thorax -7.01478 3.28147 0.309281
lowerneck -2.73327 -8.86315 -10.7504
upperneck 12.6731 -11.9794 6.24173
head 5.29322 -6.03522 2.92675
rclavicle 8.34911e-014 1.53064e-014
rhumerus -61.1097 81.5646 -138.964
rradius 87.5458
rwrist 2.50729
rhand -16.6347 -374.541
rfingers 7.12502
rthumb 9.58785 1755.7
lclavicle 8.34911e-014 1.53064e-014
lhumerus -254.592 205.646 -73.5715
lradius 103.542
lwrist 6.72265
lhand -35.2292 745.604
lfingers 7.12502
lthumb -8.36595 1495.42
rfemur -26.052 5.71471 27.8211
rtibia 48.8686
rfoot -26.0343 -7.35615
rtoes -7.83932
lfemur -24.8292 -8.56269 -21.7916
ltibia 47.9408
lfoot -22.223 17.0375
ltoes 0.466894
5041
root -2.60443 16.4953 -38.289 -714.008 6.44497 -362.558
lowerback 5.34942 4.92969 -1.0674
upperback -3.68713 6.55109 0.452081
thorax -7.01989 3.28926 0.314191
lowerneck -2.68038 -8.87047 -10.7294
upperneck 12.6642 -11.9927 6.21837
head 5.28003 -6.04316 2.91794
rclavicle -3.17496e-014 -2.68359e-015
rhumerus -61.555 81.5359 -139.425
rradius 87.5236
rwrist 2.26929
rhand -16.7216 -374.312
rfingers 7.12502
rthumb 9.50393 1755.92
lclavicle -3.17496e-014 -2.68359e-015
lhumerus -254.743 205.678 -73.5318
lradius 103.608
lwrist 6.73292
lhand -35.1211 745.486
lfingers 7.12502
lthumb -8.26162 1495.3
rfemur -25.9961 5.71044 27.8319
rtibia 48.8098
rfoot -26.0171 -7.32172
rtoes -7.8915
lfemur -24.7704 -8.53776 -21.7883
ltibia 47.8893
lfoot -22.2328 17.0217
ltoes 0.433178
5042
root -2.60327 16.4971 -38.2891 -714.033 6.39957 -362.584
lowerback 5.32597 4.92775 -1.06742
upperback -3.67458 6.54921 0.463429
thorax -6.99435 3.2888 0.329088
lowerneck -2.74961 -8.86978 -10.7255
upperneck 12.6984 -11.9839 6.19707
head 5.30005 -6.03854 2.90767
rclavicle 1.21911e-015 -6.85807e-015
rhumerus -62.3065 81.5465 -140.183
rradius 87.52
rwrist 1.98752
rhand -16.9896 -374.251
rfingers 7.12502
rthumb 9.24542 1755.97
lclavicle 1.21911e-015 -6.85807e-015
lhumerus -254.773 205.682 -73.5238
lradius 103.599
lwrist 6.75867
lhand -35.1336 745.599
lfingers 7.12502
lthumb -8.27366 1495.42
rfemur -25.9488 5.69919 27.8579
rtibia 48.7543
rfoot -25.9836 -7.28856
rtoes -7.99789
lfemur -24.7171 -8.50079 -21.7722
ltibia 47.8384
lfoot -22.2366 17.0069
ltoes 0.34213
5043
root -2.60212 16.5006 -38.2894 -714.067 6.35073 -362.578
lowerback 5.30226 4.92556 -1.10872
upperback -3.66521 6.54343 0.471611
thorax -6.97639 3.28826 0.363468
lowerneck -2.72906 -8.85608 -10.7266
upperneck 12.7014 -11.9663 6.18861
head 5.29556 -6.03094 2.90767
rclavicle 6.916e-014 -7.15625e-015
rhumerus -62.9509 81.5582 -140.834
rradius 87.5228
rwrist 1.75271
rhand -17.1376 -374.239
rfingers 7.12502
rthumb 9.10258 1755.98
lclavicle 6.916e-014 -7.15625e-015
lhumerus -254.797 205.663 -73.5112
lradius 103.56
lwrist 6.73684
lhand -35.0875 745.38
lfingers 7.12502
lthumb -8.2292 1495.2
rfemur -25.8818 5.69487 27.8429
rtibia 48.7013
rfoot -25.9713 -7.24354
rtoes -7.99795
lfemur -24.6346 -8.51819 -21.7909
ltibia 47.7888
lfoot -22.2918 16.97
ltoes 0.434299
5044
root -2.60131 16.5018 -38.2908 -714.097 6.32732 -362.584
lowerback 5.30007 4.92054 -1.1367
upperback -3.65751 6.53475 0.478842
thorax -6.97085 3.2855 0.387837
lowerneck -2.73633 -8.84273 -10.7322
upperneck 12.702 -11.9492 6.2038
head 5.29667 -6.02193 2.91431
rclavicle -5.45214e-014 2.68359e-015
rhumerus -63.2328 81.5834 -141.127
rradius 87.5016
rwrist 1.52416
rhand -17.1313 -374.22
rfingers 7.12502
rthumb 9.10861 1756
lclavicle -5.45214e-014 2.68359e-015
lhumerus -254.803 205.667 -73.4989
lradius 103.484
lwrist 6.73058
lhand -35.1261 745.305
lfingers 7.12502
lthumb -8.26648 1495.12
rfemur -25.8389 5.65565 27.8507
rtibia 48.6572
rfoot -25.958 -7.22381
rtoes -8.09404
lfemur -24.5867 -8.5114 -21.7955
ltibia 47.7478
lfoot -22.2655 16.9401
ltoes 0.410323
5045
root -2.59943 16.5049 -38.2912 -714.131 6.29828 -362.613
lowerback 5.27545 4.91638 -1.12692
upperback -3.63658 6.53051 0.48866
thorax -6.93432 3.28335 0.39668
lowerneck -2.76421 -8.84866 -10.724
upperneck 12.7085 -11.9557 6.20497
head 5.30348 -6.02414 2.91146
rclavicle -1.40795e-014 1.03368e-014
rhumerus -63.5305 81.6162 -141.427
rradius 87.5044
rwrist 1.36737
rhand -17.1073 -374.371
rfingers 7.12502
rthumb 9.13184 1755.85
lclavicle -1.40795e-014 1.03368e-014
lhumerus -254.744 205.657 -73.5022
lradius 103.388
lwrist 6.73116
lhand -35.0592 745.188
lfingers 7.12502
lthumb -8.20193 1495.01
rfemur -25.7834 5.63984 27.875
rtibia 48.6074
rfoot -25.9446 -7.1525
rtoes -7.96588
lfemur -24.5266 -8.47306 -21.7755
ltibia 47.7046
lfoot -22.2947 16.8788
ltoes 0.438747
5046
root -2.59797 16.5064 -38.2924 -714.166 6.27233 -362.619
lowerback 5.27532 4.90994 -1.1472
upperback -3.63422 6.52045 0.493162
thorax -6.93438 3.27944 0.413698
lowerneck -2.75694 -8.85103 -10.7209
upperneck 12.732 -11.9605 6.2014
head 5.30959 -6.02682 2.90945
rclavicle 3.17667e-014 9.44227e-015
rhumerus -63.769 81.6152 -141.667
rradius 87.4934
rwrist 1.20845
rhand -16.9973 -374.366
rfingers 7.12502
rthumb 9.23798 1755.86
lclavicle 3.17667e-014 9.44227e-015
lhumerus -254.755 205.642 -73.4707
lradius 103.319
lwrist 6.7713
lhand -35.0549 745.183
lfingers 7.12502
lthumb -8.19774 1495
rfemur -25.7339 5.62931 27.8756
rtibia 48.5741
rfoot -25.9382 -7.12894
rtoes -8.0525
lfemur -24.4727 -8.45886 -21.7838
ltibia 47.6733
lfoot -22.2985 16.8353
ltoes 0.425164
5047
root -2.5969 16.5078 -38.2942 -714.198 6.25748 -362.65
lowerback 5.31515 4.89841 -1.12925
upperback -3.65989 6.50633 0.491239
thorax -6.98199 3.27137 0.398406
lowerneck -2.71402 -8.83396 -10.7477
upperneck 12.7536 -11.9477 6.25214
head 5.31257 -6.02005 2.93191
rclavicle -9.97806e-015 -3.77691e-015
rhumerus -64.0781 81.6583 -141.992
rradius 87.499
rwrist 1.08272
rhand -17.0639 -374.541
rfingers 7.12502
rthumb 9.17372 1755.68
lclavicle -9.97806e-015 -3.77691e-015
lhumerus -254.821 205.61 -73.4424
lradius 103.294
lwrist 6.81504
lhand -35.1314 745.173
lfingers 7.12502
lthumb -8.2716 1494.99
rfemur -25.6866 5.61459 27.906
rtibia 48.5326
rfoot -25.9292 -7.12141
rtoes -8.07834
lfemur -24.433 -8.42606 -21.762
ltibia 47.6436
lfoot -22.286 16.8027
ltoes 0.325613
5048
root -2.59491 16.5085 -38.2953 -714.222 6.22714 -362.64
lowerback 5.26738 4.89475 -1.15921
upperback -3.63697 6.49931 0.495708
thorax -6.93389 3.26971 0.425943
lowerneck -2.74618 -8.84377 -10.7473
upperneck 12.8055 -11.9555 6.21828
head 5.33284 -6.02513 2.91836
rclavicle -6.53225e-014 -9.64106e-015
rhumerus -64.2474 81.6426 -142.146
rradius 87.4855
rwrist 0.969334
rhand -17.0424 -374.49
rfingers 7.12502
rthumb 9.19443 1755.73
lclavicle -6.53225e-014 -9.64106e-015
lhumerus -254.805 205.586 -73.4026
lradius 103.256
lwrist 6.85763
lhand -35.0255 745.164
lfingers 7.12502
lthumb -8.16942 1494.99
rfemur -25.6481 5.61909 27.8877
rtibia 48.5058
rfoot -25.8983 -7.08447
rtoes -8.08994
lfemur -24.387 -8.44127 -21.7879
ltibia 47.6139
lfoot -22.291 16.7836
ltoes 0.309641
5049
root -2.5935 16.511 -38.2971 -714.257 6.21836 -362.663
lowerback 5.28189 4.89671 -1.14119
upperback -3.63751 6.50296 0.490764
thorax -6.94021 3.27042 0.409215
lowerneck -2.72135 -8.85342 -10.7348
upperneck 12.8158 -11.973 6.22185
head 5.33281 -6.0335 2.91712
rclavicle 4.11344e-014 1.32192e-014
rhumerus -64.2141 81.6286 -142.106
rradius 87.5015
rwrist 0.916657
rhand -17.0392 -374.774
rfingers 7.12502
rthumb 9.19747 1755.45
lclavicle 4.11344e-014 1.32192e-014
lhumerus -254.777 205.611 -73.3579
lradius 103.186
lwrist 6.90454
lhand -34.9483 745.077
lfingers 7.12502
lthumb -8.09485 1494.9
rfemur -25.6015 5.61591 27.9063
rtibia 48.4717
rfoot -25.8947 -7.06788
rtoes -8.08423
lfemur -24.3405 -8.40064 -21.7737
ltibia 47.5845
lfoot -22.3063 16.7128
ltoes 0.297328
